<?xml version="1.0" standalone="no"?>
<!DOCTYPE svg PUBLIC "-//W3C//DTD SVG 20010904//EN"
 "http://www.w3.org/TR/2001/REC-SVG-20010904/DTD/svg10.dtd">
<svg version="1.0" xmlns="http://www.w3.org/2000/svg"
 width="900.000000pt" height="500.000000pt" viewBox="0 0 900.000000 500.000000"
 preserveAspectRatio="xMidYMid meet">

<g transform="translate(0.000000,500.000000) scale(0.100000,-0.100000)"
fill="#000000" stroke="none">
<path d="M5690 3103 c-102 -30 -189 -59 -194 -64 -6 -5 8 -9 36 -9 35 0 54 -6
75 -24 27 -23 28 -29 31 -125 2 -56 2 -101 -1 -101 -2 0 -21 7 -40 15 -47 20
-159 19 -227 -1 -69 -20 -114 -50 -172 -111 -90 -97 -131 -216 -131 -378 0
-205 75 -360 203 -419 64 -29 179 -29 236 1 38 20 94 75 121 119 10 16 12 8
12 -48 l1 -68 183 0 182 1 -41 20 c-23 11 -46 31 -53 45 -8 18 -11 194 -11
614 0 466 -3 590 -12 589 -7 0 -96 -25 -198 -56z m-79 -372 l29 -29 0 -317 0
-317 -29 -28 c-54 -54 -112 -52 -171 8 -53 54 -81 135 -89 262 -10 176 11 297
67 383 32 48 65 66 120 67 35 0 49 -6 73 -29z"/>
<path d="M735 3144 c-178 -42 -255 -82 -362 -190 -64 -64 -89 -99 -121 -165
-78 -161 -90 -321 -37 -487 34 -108 88 -193 174 -274 254 -242 650 -235 896
16 393 401 124 1082 -435 1102 -52 1 -104 1 -115 -2z"/>
<path d="M6125 3130 c-85 -56 -85 -187 0 -240 41 -25 116 -27 156 -3 31 19 69
85 69 121 0 37 -25 86 -59 115 -41 34 -119 38 -166 7z"/>
<path d="M1768 3084 c-80 -41 -147 -145 -195 -301 -25 -83 -27 -100 -27 -278
0 -216 14 -289 80 -424 86 -174 210 -233 334 -158 95 57 161 179 201 369 39
192 13 457 -61 612 -85 178 -208 245 -332 180z"/>
<path d="M2810 3101 c0 -5 12 -12 26 -15 14 -4 37 -18 50 -31 l24 -24 0 -534
c0 -411 -3 -537 -12 -550 -7 -9 -31 -26 -53 -36 l-40 -20 140 0 140 0 -43 21
c-23 11 -47 29 -52 39 -6 11 -9 195 -8 485 l3 467 215 -507 c156 -367 219
-506 229 -504 9 2 101 205 235 523 l221 519 3 -484 c2 -536 5 -517 -63 -541
-19 -7 -35 -17 -35 -21 0 -4 106 -8 235 -8 218 0 283 8 205 25 -16 4 -39 18
-50 32 -19 25 -20 40 -20 557 0 592 -3 562 69 595 l36 16 -98 3 c-54 1 -139 1
-188 0 l-90 -3 -165 -390 c-91 -214 -168 -393 -172 -397 -4 -3 -83 173 -177
393 l-169 399 -198 0 c-109 0 -198 -4 -198 -9z"/>
<path d="M2338 3033 c-54 -62 -78 -194 -85 -464 -7 -291 18 -504 71 -581 26
-40 43 -41 68 -7 100 134 103 885 4 1032 -26 38 -38 42 -58 20z"/>
<path d="M4523 2792 c-163 -58 -260 -210 -271 -424 -11 -226 69 -393 227 -471
59 -29 74 -32 156 -32 76 0 98 4 146 26 108 51 179 143 214 274 17 65 11 83
-14 45 -9 -14 -33 -44 -54 -66 -85 -94 -219 -110 -320 -40 -85 58 -137 158
-137 261 l0 55 270 0 270 0 0 44 c0 66 -35 165 -78 221 -27 36 -57 60 -106 85
-62 31 -78 35 -160 38 -68 2 -104 -2 -143 -16z m178 -49 c46 -28 72 -93 77
-195 l4 -88 -156 0 -156 0 0 28 c0 15 6 52 13 83 35 149 130 224 218 172z"/>
<path d="M6158 2756 c-165 -47 -209 -66 -157 -66 11 0 34 -13 50 -29 l29 -29
0 -371 0 -371 188 1 187 0 -42 19 c-23 10 -47 29 -55 42 -10 18 -14 120 -18
439 l-5 416 -177 -51z"/>
<path d="M6598 2756 c-165 -47 -209 -66 -157 -66 11 0 34 -13 50 -29 l29 -29
0 -264 c0 -288 8 -349 54 -418 64 -98 239 -119 346 -42 21 14 52 47 69 71 l31
45 0 -67 0 -67 183 0 182 1 -36 19 c-67 35 -64 12 -69 475 l-5 422 -130 -38
c-71 -22 -147 -44 -167 -49 -44 -12 -49 -25 -12 -34 48 -13 54 -48 54 -349 l0
-273 -29 -28 c-20 -20 -43 -30 -73 -33 -53 -5 -86 11 -112 57 -20 33 -21 55
-26 391 l-5 356 -177 -51z"/>
<path d="M7552 2760 c-95 -26 -175 -50 -179 -53 -3 -4 3 -9 13 -13 45 -14 64
-29 74 -57 6 -19 10 -164 10 -388 l0 -359 173 0 172 0 -33 20 c-18 11 -37 32
-42 46 -6 14 -10 162 -10 346 l0 320 34 34 c56 56 139 44 177 -26 11 -19 15
-104 17 -382 l3 -358 172 0 c167 0 171 1 139 17 -19 9 -38 27 -43 40 -5 14 -9
171 -9 351 0 295 2 329 18 348 42 53 114 59 164 15 l33 -29 3 -371 3 -371 182
0 182 0 -40 23 c-22 12 -45 34 -52 47 -9 18 -13 106 -13 331 0 357 -5 388 -74
454 -48 46 -99 65 -178 65 -79 0 -171 -48 -214 -112 l-32 -47 -12 30 c-33 78
-98 119 -201 127 -106 7 -187 -30 -233 -107 l-21 -36 -5 71 -5 71 -173 -47z"/>
</g>
</svg>
