<?xml version="1.0" standalone="no"?>
<!DOCTYPE svg PUBLIC "-//W3C//DTD SVG 20010904//EN"
 "http://www.w3.org/TR/2001/REC-SVG-20010904/DTD/svg10.dtd">
<svg version="1.0" xmlns="http://www.w3.org/2000/svg"
 width="900.000000pt" height="871.000000pt" viewBox="0 0 900.000000 871.000000"
 preserveAspectRatio="xMidYMid meet">

<g transform="translate(0.000000,871.000000) scale(0.100000,-0.100000)"
fill="#000000" stroke="none">
<path d="M4285 7510 c-3 -5 -31 -10 -61 -10 -30 0 -54 -4 -54 -9 0 -4 -35 -11
-77 -15 -42 -3 -79 -10 -82 -15 -3 -4 -32 -11 -63 -15 -32 -4 -60 -12 -63 -17
-4 -5 -17 -9 -31 -9 -13 0 -24 -4 -24 -10 0 -5 -11 -10 -24 -10 -14 0 -27 -4
-31 -10 -3 -5 -12 -7 -19 -4 -7 3 -19 -2 -26 -11 -11 -13 34 -15 453 -15 289
0 468 -4 472 -10 3 -5 113 -10 273 -11 295 -1 392 -6 392 -20 0 -5 7 -9 15 -9
8 0 15 -4 15 -10 0 -5 -13 -10 -28 -10 -15 0 -34 -6 -40 -12 -10 -10 -119 -14
-460 -16 -251 -2 -451 -8 -456 -13 -14 -12 -836 -12 -836 1 0 5 23 24 50 42
47 31 62 48 41 48 -6 0 -12 -4 -16 -9 -3 -5 -19 -12 -35 -16 -17 -4 -30 -10
-30 -13 0 -4 -15 -13 -32 -20 -18 -7 -40 -18 -48 -23 -8 -5 -23 -12 -32 -15
-10 -4 -18 -10 -18 -15 0 -5 -6 -9 -12 -9 -7 0 -33 -11 -58 -25 -25 -13 -53
-27 -62 -31 -10 -3 -18 -10 -18 -15 0 -5 -6 -9 -13 -9 -8 0 -24 -11 -37 -25
-12 -13 -25 -23 -29 -22 -8 3 -59 -33 -84 -60 -11 -13 -26 -23 -32 -23 -6 0
-24 -13 -40 -30 -16 -16 -33 -30 -39 -30 -10 0 -232 -225 -307 -312 -25 -29
-48 -61 -52 -70 -3 -10 -11 -18 -17 -18 -5 0 -10 -8 -10 -18 0 -9 -9 -23 -20
-30 -12 -7 -25 -23 -30 -35 -11 -24 -25 -47 -56 -92 -18 -26 -27 -46 -36 -73
-1 -4 -11 -15 -22 -24 -20 -17 -18 -17 61 -18 45 0 85 -4 88 -10 4 -6 161 -10
439 -10 238 0 435 -2 438 -5 3 -3 164 -6 357 -6 224 1 351 -3 351 -9 0 -6 142
-10 394 -10 239 0 397 -4 401 -10 3 -5 146 -9 358 -9 353 0 493 -6 503 -22 3
-5 14 -9 25 -9 10 0 19 -7 19 -15 0 -17 -30 -35 -59 -35 -12 0 -21 -4 -21 -10
0 -5 -13 -10 -29 -10 -17 0 -32 -4 -35 -8 -3 -5 -32 -8 -66 -7 -33 1 -63 -2
-66 -6 -6 -11 -688 -12 -698 -2 -4 5 -373 10 -819 12 -447 2 -1020 5 -1274 7
-412 4 -463 3 -463 -11 0 -8 -5 -15 -11 -15 -5 0 -9 -8 -8 -17 2 -17 -2 -31
-21 -78 -19 -47 -23 -61 -21 -77 1 -10 -3 -18 -8 -18 -6 0 -11 -11 -11 -24 0
-14 -5 -28 -10 -31 -6 -3 -7 -17 -4 -30 3 -12 1 -26 -5 -29 -6 -4 -11 -20 -11
-36 0 -16 -4 -32 -10 -35 -5 -3 -10 -26 -10 -50 0 -24 -4 -46 -9 -49 -5 -3 -7
-23 -4 -45 3 -23 1 -41 -6 -45 -15 -10 -16 -532 -1 -541 6 -4 10 -23 10 -43
-1 -56 11 -142 21 -148 5 -3 9 -20 9 -39 0 -19 4 -36 9 -39 5 -3 7 -15 4 -26
-3 -11 0 -20 6 -20 6 0 11 -13 11 -29 0 -17 4 -32 9 -35 4 -3 11 -23 15 -45 3
-21 16 -57 28 -80 l22 -41 2233 0 c1978 0 2233 2 2233 15 0 8 3 15 8 15 10 0
29 47 37 93 4 20 11 37 16 37 5 0 9 16 9 35 0 19 4 35 9 35 6 0 10 8 10 18 1
35 14 97 22 107 4 6 11 52 15 103 4 51 11 92 15 92 5 0 9 106 9 235 l0 235
-68 0 c-38 0 -72 3 -75 6 -4 4 -89 6 -191 5 -117 -1 -187 2 -191 9 -4 6 -81
10 -211 10 -112 0 -204 4 -204 9 0 4 -81 8 -180 8 -99 0 -183 3 -187 6 -3 4
-77 7 -164 7 -94 0 -160 4 -164 10 -4 6 -65 10 -151 10 -79 0 -144 3 -144 8 0
4 -52 6 -114 5 -68 -2 -117 1 -121 7 -3 6 -53 10 -111 10 -57 0 -104 4 -104 9
0 4 -73 11 -162 15 -90 4 -167 12 -173 17 -5 5 -37 9 -72 9 -35 0 -63 4 -63
10 0 6 33 10 78 10 43 0 82 4 87 9 11 11 149 18 368 19 94 1 147 5 147 12 0 7
86 10 259 10 143 0 262 4 265 8 3 5 366 9 807 10 440 0 803 3 807 6 3 3 0 6
-6 6 -7 0 -12 13 -12 29 0 17 -5 33 -11 37 -6 3 -8 15 -6 26 3 11 2 29 -4 39
-5 11 -13 28 -19 39 -5 11 -10 29 -10 41 0 11 -6 35 -14 52 -21 49 -30 71 -31
82 0 6 -15 39 -32 75 -41 87 -63 137 -63 144 0 4 -9 17 -20 29 -12 12 -23 32
-26 44 -6 21 -12 23 -70 23 -35 0 -64 4 -64 9 0 5 -86 12 -190 16 -105 4 -193
11 -196 16 -3 5 -45 9 -95 9 -54 0 -89 4 -89 10 0 7 -22 8 -59 5 -36 -3 -62
-1 -66 5 -3 5 -26 10 -51 10 -24 0 -44 5 -44 10 0 6 -11 10 -25 10 -18 0 -25
5 -25 20 0 16 6 19 36 16 19 -1 37 1 40 6 3 4 36 8 73 8 37 0 71 4 77 9 9 9
172 18 387 21 53 1 97 5 97 9 0 11 -36 21 -77 21 -17 0 -34 4 -37 9 -3 4 -27
12 -53 15 -92 14 -145 68 -73 74 19 2 39 8 44 13 6 5 57 9 114 9 l105 0 -127
123 c-154 149 -220 207 -233 207 -5 0 -19 11 -31 25 -12 14 -27 25 -33 25 -7
0 -19 8 -28 18 -17 18 -45 37 -71 49 -8 4 -17 9 -20 12 -11 13 -67 48 -97 62
-18 7 -33 17 -33 21 0 5 -3 8 -7 7 -15 -2 -53 13 -53 21 0 7 -28 18 -42 16 -3
-1 -17 9 -31 22 -13 13 -28 22 -33 21 -16 -2 -54 13 -54 22 0 5 -11 9 -23 9
-13 0 -27 3 -31 7 -3 4 -13 8 -21 9 -8 1 -28 9 -46 18 -17 8 -46 18 -65 22
-19 3 -37 10 -40 15 -3 5 -18 9 -34 9 -16 0 -31 4 -35 9 -3 5 -30 13 -60 16
-30 4 -55 11 -55 16 0 5 -18 9 -39 9 -22 0 -42 4 -45 9 -3 5 -23 7 -45 4 -23
-3 -41 -1 -45 6 -4 6 -27 11 -51 11 -24 0 -47 5 -50 10 -4 6 -108 10 -280 10
-172 0 -276 -4 -280 -10z"/>
<path d="M2340 4329 c0 -5 -10 -14 -22 -19 -21 -8 -21 -9 -3 -10 17 0 17 -2 5
-10 -8 -5 -10 -10 -5 -10 20 -1 -21 -20 -45 -21 -17 -1 -19 -3 -7 -6 9 -2 17
-8 17 -13 0 -5 10 -12 23 -16 19 -6 14 -9 -28 -20 -43 -10 -46 -12 -18 -13 17
0 35 -6 39 -12 5 -8 -3 -10 -25 -7 -36 5 -39 -2 -11 -22 19 -14 19 -15 3 -22
-13 -5 -10 -7 12 -8 17 -1 24 -4 17 -7 -6 -2 -10 -9 -6 -14 3 -5 -7 -10 -23
-11 -15 -1 17 -5 72 -8 l100 -6 -85 -4 c-84 -3 -84 -3 -30 -10 52 -6 50 -7
-35 -10 l-90 -3 80 -12 80 -12 -95 -4 -95 -5 119 -2 c66 -1 117 -5 113 -8 -7
-7 -76 -23 -119 -28 -68 -7 -69 -9 -13 -16 42 -6 62 -4 67 4 6 8 8 8 8 -1 0
-8 11 -11 30 -9 17 2 30 -1 30 -5 0 -5 -33 -10 -72 -11 l-73 -2 80 -6 80 -6
-70 -4 -70 -3 52 -6 c82 -10 74 -21 -18 -23 l-84 -2 80 -5 c79 -6 84 -21 7
-21 -25 0 -32 -3 -23 -9 7 -5 22 -6 32 -4 10 3 19 0 19 -6 0 -6 -21 -11 -52
-12 l-53 -1 70 -13 c59 -10 64 -13 33 -15 -21 -1 -42 -4 -48 -5 -5 -1 -29 -4
-52 -5 l-43 -3 35 -7 c21 -4 -30 -8 -129 -9 -90 0 -162 -3 -160 -5 2 -2 101
-7 219 -11 118 -4 258 -11 310 -15 l95 -7 -140 -2 c-89 -2 -133 -6 -120 -11
16 -7 17 -9 3 -9 -9 -1 -20 4 -24 10 -4 8 -9 7 -15 -2 -7 -12 -9 -12 -9 0 0 9
-4 10 -12 4 -7 -6 -20 -11 -28 -11 -8 -1 -55 -5 -105 -10 l-90 -9 120 -3 c252
-5 358 -10 363 -15 3 -3 -66 -5 -154 -6 -95 -1 -149 -4 -134 -9 17 -5 -7 -8
-70 -9 -152 -2 -148 -20 5 -22 135 -1 232 -16 125 -19 -30 0 -73 -5 -95 -9
-31 -7 -14 -9 80 -12 l120 -2 -85 -9 c-47 -5 -188 -12 -315 -15 l-230 -6 120
-13 c66 -7 125 -13 130 -12 6 0 114 1 240 2 164 2 194 1 105 -4 l-125 -6 130
-3 c97 -2 122 -5 100 -12 -16 -5 -46 -9 -65 -9 -72 2 -345 -13 -350 -18 -3 -2
75 -2 173 1 112 4 177 3 177 -3 0 -6 24 -10 53 -11 41 0 47 -2 30 -9 -12 -5
-81 -10 -153 -11 -93 -1 -130 -4 -127 -13 2 -6 23 -13 48 -16 l44 -6 -55 -10
c-51 -9 -42 -11 110 -17 199 -9 334 -18 339 -22 1 -2 -199 -2 -445 -1 -247 2
-460 0 -474 -4 -16 -5 19 -9 95 -11 93 -2 109 -4 70 -9 -27 -4 175 -8 449 -8
275 -1 497 -4 495 -6 -2 -2 -128 -6 -279 -10 -264 -6 -789 -23 -820 -27 -8 -1
3 -5 25 -10 22 -4 126 -7 230 -6 l190 1 -160 6 -160 6 190 1 c105 0 177 -3
160 -7 -19 -5 22 -8 110 -10 328 -5 320 -17 -15 -20 -191 -2 -305 -6 -265 -10
39 -4 -80 -8 -270 -9 -187 -2 -326 -7 -310 -11 17 -4 125 -8 240 -9 330 -3
886 -20 925 -29 l35 -8 -50 -7 c-27 -3 -81 -11 -120 -16 -38 -6 -126 -11 -195
-12 -69 -2 -106 -4 -82 -6 66 -6 49 -23 -25 -25 -38 0 -72 -2 -78 -3 -5 -1
-59 -5 -120 -10 l-110 -9 202 -7 c111 -4 207 -11 215 -15 19 -12 -49 -23 -152
-24 -47 0 -92 -5 -100 -10 -10 -7 29 -10 120 -10 74 -1 153 -5 175 -9 31 -7
13 -9 -76 -10 -64 0 -145 -4 -180 -8 -64 -7 -64 -7 -24 -14 22 -5 66 -8 97 -8
62 -1 88 -18 36 -23 -18 -2 66 -8 187 -13 121 -5 228 -9 238 -7 9 1 17 -2 17
-7 0 -5 -69 -12 -152 -16 -84 -3 -180 -9 -213 -11 -33 -3 -167 -8 -298 -11
-131 -3 -240 -9 -242 -13 -4 -7 74 -11 547 -28 227 -8 321 -22 152 -22 -49 0
-296 -5 -549 -11 -253 -6 -468 -11 -477 -11 -26 1 -22 -13 7 -26 17 -8 89 -12
199 -12 194 0 326 -9 326 -21 0 -5 -21 -9 -47 -10 -105 -2 6 -16 192 -24 396
-19 1284 -6 1850 27 248 14 1134 14 1690 0 l350 -9 -250 -3 -250 -3 250 -9
c249 -8 360 -16 353 -24 -3 -2 -180 3 -394 11 -699 26 -766 27 -981 16 -419
-22 -313 -40 192 -33 171 3 351 1 400 -3 82 -7 87 -9 60 -19 -25 -9 4 -12 155
-16 102 -3 -175 -6 -614 -6 -439 1 -788 4 -775 7 13 4 49 8 79 8 30 1 73 4 95
8 36 6 38 7 15 14 -14 4 -41 8 -60 8 -84 3 6 19 175 31 99 6 185 14 190 16 20
8 -666 -5 -813 -15 -112 -8 -157 -15 -168 -26 -9 -8 -16 -15 -17 -15 -1 0
-164 -5 -362 -10 -329 -9 -448 -17 -590 -40 -28 -5 35 -5 145 -2 392 14 650 6
885 -25 94 -12 264 -18 775 -23 l655 -8 -765 3 c-615 3 -785 6 -865 18 -129
20 -302 29 -310 18 -3 -5 39 -13 95 -17 56 -3 99 -8 98 -9 -2 -2 -48 -6 -103
-9 -228 -15 -271 -19 -285 -27 -21 -12 40 -12 1385 -10 655 2 1187 0 1183 -4
-9 -10 -2737 -10 -2778 -1 -33 8 -34 9 -12 17 13 5 87 14 165 21 122 11 135
13 92 19 -112 15 -362 22 -381 11 -14 -9 -15 -12 -4 -12 9 -1 5 -5 -8 -11 -23
-9 -402 -26 -597 -27 -55 -1 -116 -5 -135 -9 -22 -6 39 -8 161 -5 194 4 759
-12 894 -25 l70 -7 -60 -7 c-33 -4 -152 -8 -265 -9 -223 -3 -480 -15 -372 -18
72 -2 85 -21 15 -23 l-48 -1 40 -13 40 -13 -52 -1 c-28 -1 -54 -5 -58 -11 -6
-9 12 -9 765 10 630 17 733 18 943 10 180 -7 237 -16 209 -34 -5 -3 -184 -8
-398 -11 -468 -6 -641 -13 -664 -25 -10 -5 -82 -17 -161 -26 -205 -23 -208
-29 -24 -49 22 -2 166 -9 320 -15 154 -6 372 -15 485 -20 113 -5 216 -10 230
-10 19 0 21 -3 12 -12 -15 -15 -605 -18 -822 -6 -69 5 -219 13 -335 18 -383
19 -637 38 -670 50 -17 7 -15 9 15 19 27 8 4 9 -105 5 -278 -10 -299 -24 -63
-44 73 -5 144 -13 156 -17 38 -10 6 -21 -80 -29 -56 -5 -75 -10 -71 -19 3 -9
-13 -17 -54 -25 -32 -6 -85 -17 -118 -24 l-60 -13 115 -6 c63 -4 518 -9 1010
-12 492 -3 906 -7 920 -9 14 -2 72 -4 130 -5 87 -2 101 -4 80 -13 -23 -11 -21
-12 33 -21 132 -23 49 -34 -311 -43 -244 -7 -263 -6 -282 11 -19 17 -40 18
-268 15 -412 -6 -663 -5 -954 3 -166 5 -278 4 -278 -1 0 -23 35 -31 180 -46
218 -21 258 -24 495 -36 116 -6 284 -15 375 -20 91 -5 248 -12 350 -15 180 -5
440 -21 490 -30 154 -26 331 -29 1125 -22 258 2 358 1 250 -3 -121 -5 -50 -6
220 -4 391 3 613 13 785 35 120 15 122 21 9 44 -41 8 -81 18 -89 21 -24 10 16
22 75 24 67 3 96 12 87 27 -8 13 -123 53 -153 53 -10 0 -20 4 -23 9 -6 9 24
20 64 22 46 2 -28 16 -95 18 -33 1 -67 6 -75 11 -10 7 52 10 190 9 147 0 226
4 280 15 41 8 100 18 130 21 30 3 69 8 85 10 17 2 48 4 69 4 85 2 23 9 -124
16 -161 6 -388 19 -645 35 -82 5 -208 10 -280 11 -128 2 -129 3 -45 9 47 4
132 13 190 21 58 8 146 14 195 14 50 0 93 3 96 8 8 11 257 11 304 -1 87 -21
866 0 1040 28 l50 8 -43 1 c-23 0 -88 8 -145 17 -87 14 -201 16 -797 16 -382
-1 -690 1 -685 3 6 2 81 6 168 7 112 2 160 7 165 15 13 21 292 36 530 30 208
-6 387 4 405 22 18 18 -61 23 -230 17 -93 -3 -361 -7 -598 -10 l-430 -4 363 8
c365 8 487 19 246 21 -71 1 -241 5 -379 9 l-250 6 203 2 c111 1 202 6 202 10
0 17 465 82 588 82 113 0 64 17 -70 24 -73 4 -151 9 -173 11 -22 2 -93 7 -157
10 -65 4 -118 10 -118 13 0 4 19 15 41 26 33 15 79 20 262 27 300 11 419 20
386 29 -48 13 -236 20 -684 25 -435 5 -525 9 -525 26 0 4 21 11 47 15 55 8
550 -3 738 -17 172 -12 596 -12 609 1 7 7 -9 10 -44 11 -99 1 -9 18 111 20
120 2 174 18 69 20 -36 1 -252 1 -480 0 -482 0 -617 11 -260 23 143 4 256 13
290 21 30 8 78 18 105 23 l50 9 -50 8 c-27 4 -52 11 -55 16 -3 4 -66 13 -140
19 -74 6 -142 13 -150 16 -8 3 -58 9 -110 14 -52 5 -142 17 -200 26 -89 14
-152 15 -423 10 -222 -5 -317 -4 -312 4 3 5 17 10 31 10 14 0 22 4 19 10 -4 6
18 10 57 11 117 3 294 15 236 17 -31 1 -60 7 -63 12 -4 6 34 10 107 10 77 0
108 3 98 10 -18 12 -32 11 225 20 188 6 178 6 -157 8 -197 1 -358 5 -358 10 0
4 125 7 278 7 190 0 283 4 297 12 15 9 -101 11 -493 10 -282 -1 -520 1 -530 5
-20 8 119 10 1061 13 389 1 710 5 714 8 3 4 -41 7 -100 7 -59 0 -107 4 -109
10 -1 5 -46 13 -98 18 -89 9 -81 9 106 11 110 0 257 4 325 8 114 7 119 8 64
14 -79 9 -962 8 -910 -1 36 -6 37 -7 15 -13 -14 -4 -47 -8 -75 -10 -27 -2 42
-4 155 -5 117 -1 200 -6 195 -11 -14 -12 -305 -22 -305 -10 0 5 -73 8 -177 7
l-178 -2 175 -6 c107 -3 0 -6 -275 -6 -247 0 -415 2 -372 3 89 4 105 23 20 23
-186 1 -466 14 -518 25 -52 11 17 13 486 14 346 0 555 5 570 11 17 7 -83 9
-323 6 -210 -3 -350 -1 -353 5 -4 5 28 9 76 9 134 0 94 10 -86 21 -22 1 10 6
70 10 136 9 954 -1 975 -12 14 -8 -426 -5 -720 5 -90 3 -122 2 -95 -4 22 -5
240 -11 485 -14 245 -2 423 -1 395 2 -42 6 -46 8 -25 14 14 4 48 8 75 9 28 1
40 4 27 6 -13 3 -25 10 -28 17 -4 9 -59 12 -232 9 -125 -1 -276 1 -337 6 -86
6 -29 8 260 10 204 0 422 4 485 9 111 7 113 7 50 13 l-65 6 75 2 c69 3 72 4
35 12 -22 4 -87 9 -145 11 -67 1 -22 5 125 9 212 5 204 6 -102 4 -231 0 -330
2 -322 10 6 6 138 12 362 16 l352 5 -455 2 c-337 2 -450 5 -436 14 13 7 109 9
322 4 195 -4 305 -2 309 4 4 6 -35 10 -107 11 -62 0 -131 4 -153 8 -37 8 -34
9 35 12 l75 2 -60 7 c-60 7 -60 7 -15 10 39 3 41 4 13 7 -20 3 -33 10 -33 19
0 11 21 14 108 15 59 0 116 4 126 8 11 4 -32 6 -95 3 -62 -2 -111 -1 -107 3 9
9 43 14 130 16 48 1 68 6 73 16 3 8 12 12 20 9 8 -3 15 -1 15 4 0 5 44 11 98
13 53 1 -20 4 -163 6 -172 3 -243 6 -210 11 28 5 94 9 148 9 53 1 97 4 97 9 0
4 -48 6 -107 4 -77 -2 -104 0 -93 7 8 6 23 8 34 5 12 -4 16 -2 12 5 -4 6 -25
11 -47 11 -21 0 -39 4 -39 9 0 12 55 20 103 16 20 -1 40 1 43 6 3 5 -36 9 -88
10 -109 1 -287 15 -243 18 53 5 307 0 395 -7 101 -8 170 -5 150 8 -8 5 -36 6
-62 3 -38 -5 -48 -3 -48 9 0 12 -20 16 -92 22 -50 3 -115 6 -145 6 -31 0 -52
4 -48 9 3 5 -7 12 -22 14 -16 2 13 5 62 7 65 2 82 4 60 10 -22 6 -11 8 44 9
41 0 71 4 68 7 -4 4 -43 6 -87 5 -50 -1 -80 2 -80 8 0 11 60 16 145 14 l40 -1
-47 11 c-70 18 -69 27 3 29 l64 1 -50 7 c-47 6 -49 7 -25 17 22 10 17 12 -40
14 -55 2 -59 3 -25 8 36 5 32 6 -30 11 l-70 6 88 2 c49 1 86 5 84 10 -3 4 -39
6 -81 6 -42 -1 -76 2 -76 7 0 5 23 9 50 9 28 0 50 5 50 10 0 6 12 10 28 10 56
0 55 17 -3 25 -38 4 -61 3 -71 -5 -9 -9 -14 -9 -14 -1 0 6 12 13 28 17 50 11
48 12 -16 13 -35 1 -61 5 -58 10 8 12 55 20 62 10 7 -12 123 -10 149 1 14 7 1
9 -42 6 -34 -1 -66 1 -70 5 -4 4 -17 9 -28 11 -18 4 -17 6 8 16 16 7 45 13 65
14 32 1 31 2 -13 7 -37 5 -55 2 -70 -9 -20 -15 -20 -15 -2 6 12 15 25 20 42
16 28 -5 33 9 10 28 -13 11 -13 15 -3 21 11 7 10 9 0 9 -8 0 -16 -8 -19 -18
-2 -10 -14 -24 -26 -31 -22 -14 -22 -13 -4 7 12 13 15 22 7 27 -5 3 -8 11 -5
16 4 5 1 9 -4 9 -6 0 -11 -8 -11 -17 0 -15 -2 -16 -10 -3 -6 10 -6 16 0 18 6
2 7 8 4 13 -4 6 -11 6 -19 -1 -10 -8 -15 -8 -21 1 -4 7 -3 9 4 5 5 -3 12 0 15
6 4 10 7 11 18 1 7 -7 20 -13 29 -12 10 0 8 5 -9 17 -31 21 -152 27 -144 6 7
-19 -7 -18 -21 2 -14 19 -66 9 -66 -12 0 -8 -7 -14 -16 -14 -18 0 -15 -34 4
-36 6 -1 17 -2 24 -3 9 -1 9 -4 0 -13 -9 -9 -15 -9 -24 0 -7 7 -17 8 -29 2
-11 -7 -20 -7 -24 0 -3 5 2 10 13 10 15 0 18 5 14 25 -2 14 -8 22 -13 19 -5
-3 -9 0 -9 6 0 7 8 9 20 5 11 -3 20 -2 20 3 0 12 3 12 -278 15 -138 1 -252 -2
-252 -7 0 -5 -6 -4 -12 1 -20 16 -305 13 -350 -3 -32 -11 -36 -11 -31 2 4 12
-9 14 -79 11 -46 -2 -90 -7 -96 -11 -7 -4 -18 -4 -24 1 -17 10 -222 13 -270 3
-22 -5 -38 -4 -38 1 0 5 -25 9 -55 9 -30 0 -55 -4 -55 -10 0 -5 -5 -10 -11
-10 -5 0 -8 4 -5 9 8 12 -514 8 -533 -3 -9 -6 -12 -5 -8 1 4 7 -93 10 -288 10
-174 -1 -292 -4 -288 -10 3 -5 -4 -4 -14 2 -21 11 -234 8 -253 -4 -5 -3 -10
-1 -10 4 0 15 -43 14 -58 -1 -7 -7 -12 -8 -12 -2 0 6 -209 10 -565 11 -355 1
-565 -2 -565 -8z m1963 -6 c-7 -2 -19 -2 -25 0 -7 3 -2 5 12 5 14 0 19 -2 13
-5z m414 -18 c0 -8 -4 -12 -9 -9 -5 3 -6 10 -3 15 9 13 12 11 12 -6z m80 -7
c-3 -8 -6 -5 -6 6 -1 11 2 17 5 13 3 -3 4 -12 1 -19z m243 6 c0 -2 -7 -4 -15
-4 -8 0 -15 4 -15 10 0 5 7 7 15 4 8 -4 15 -8 15 -10z m896 1 c-4 -12 0 -14
19 -11 13 2 29 -2 35 -9 12 -15 -5 -16 -27 -2 -7 5 -13 4 -13 0 0 -5 -10 -10
-22 -10 -16 -2 -19 0 -10 6 8 5 13 11 13 15 -2 16 0 26 5 26 3 0 4 -7 0 -15z
m250 0 c-6 -17 24 -21 40 -5 6 6 10 3 10 -9 0 -11 -4 -17 -8 -15 -4 3 -19 -3
-34 -13 -26 -17 -27 -17 -20 5 6 17 4 21 -8 16 -12 -5 -15 -2 -10 10 3 9 10
13 15 10 5 -3 9 0 9 5 0 6 3 11 6 11 3 0 4 -7 0 -15z m355 -11 c5 -15 8 -29 5
-31 -2 -2 -8 10 -14 26 -13 38 -5 41 9 5z m35 14 c5 -7 3 -8 -6 -3 -8 5 -11 4
-6 -3 4 -6 13 -9 21 -5 9 3 15 -1 15 -10 0 -28 -12 -47 -29 -47 -12 0 -16 8
-15 33 2 52 6 58 20 35z m59 2 c-3 -5 -12 -10 -18 -10 -7 0 -6 4 3 10 19 12
23 12 15 0z m-2446 -37 c2 -2 -9 -3 -25 -2 -16 0 -23 3 -16 6 10 4 10 8 0 21
-9 12 -5 11 12 -3 14 -11 27 -21 29 -22z m241 22 c7 -9 8 -15 2 -15 -5 0 -12
7 -16 15 -3 8 -4 15 -2 15 2 0 9 -7 16 -15z m261 -2 c13 -16 12 -17 -3 -4 -10
7 -18 15 -18 17 0 8 8 3 21 -13z m899 14 c0 -2 -10 -12 -22 -23 l-23 -19 19
23 c18 21 26 27 26 19z m287 -3 c-3 -3 -12 -4 -19 -1 -8 3 -5 6 6 6 11 1 17
-2 13 -5z m-2034 -19 c-3 -9 -8 -14 -10 -11 -3 3 -2 9 2 15 9 16 15 13 8 -4z
m2450 2 c3 -8 -3 -13 -18 -13 -13 0 -21 4 -19 8 3 5 10 6 15 3 5 -4 9 -1 9 4
0 15 7 14 13 -2z m88 -4 c13 -16 12 -17 -3 -4 -10 7 -18 15 -18 17 0 8 8 3 21
-13z m-2494 0 c-9 -2 -14 -9 -11 -15 4 -7 2 -8 -5 -4 -15 10 -4 26 17 25 15
-1 15 -2 -1 -6z m520 -8 c0 -8 -4 -15 -9 -15 -10 0 -11 14 -1 23 9 10 10 9 10
-8z m933 11 c0 -2 -8 -10 -17 -17 -16 -13 -17 -12 -4 4 13 16 21 21 21 13z
m346 -18 c10 -13 12 -17 4 -11 -10 9 -17 10 -27 2 -9 -8 -13 -8 -13 0 0 6 5
11 11 11 5 0 7 5 4 10 -11 18 2 10 21 -12z m-2205 -5 c13 -16 12 -17 -3 -4
-17 13 -22 21 -14 21 2 0 10 -8 17 -17z m622 2 c-3 -9 -8 -14 -10 -11 -3 3 -2
9 2 15 9 16 15 13 8 -4z m911 -1 c3 -8 2 -12 -4 -9 -6 3 -10 10 -10 16 0 14 7
11 14 -7z m861 5 c11 -16 1 -19 -13 -3 -7 8 -8 14 -3 14 5 0 13 -5 16 -11z
m31 -25 c1 -9 0 -13 -4 -10 -3 4 -7 14 -8 22 -1 9 0 13 4 10 3 -4 7 -14 8 -22z
m-3576 6 c0 -5 -10 -10 -22 -9 -22 0 -22 1 -3 9 11 5 21 9 23 9 1 1 2 -3 2 -9z
m3905 -20 c-3 -5 -12 -10 -18 -10 -7 0 -6 4 3 10 19 12 23 12 15 0z m240 -10
c-3 -5 -12 -10 -18 -10 -7 0 -6 4 3 10 19 12 23 12 15 0z m105 0 c0 -5 -2 -10
-4 -10 -3 0 -8 5 -11 10 -3 6 -1 10 4 10 6 0 11 -4 11 -10z m114 -19 c2 -3
-15 -6 -39 -6 -25 0 -41 4 -38 10 4 11 70 8 77 -4z m-349 -1 c-3 -5 -12 -10
-18 -10 -7 0 -6 4 3 10 19 12 23 12 15 0z m68 -15 c-3 -9 -8 -14 -10 -11 -3 3
-2 9 2 15 9 16 15 13 8 -4z m-43 -5 c0 -5 -2 -10 -4 -10 -3 0 -8 5 -11 10 -3
6 -1 10 4 10 6 0 11 -4 11 -10z m328 -85 c-3 -3 -9 2 -12 12 -6 14 -5 15 5 6
7 -7 10 -15 7 -18z m-4241 -271 c-3 -3 -12 -4 -19 -1 -8 3 -5 6 6 6 11 1 17
-2 13 -5z m4261 -181 c-26 -2 -71 -2 -100 0 -29 2 -8 3 47 3 55 0 79 -1 53 -3z
m-33 -53 c3 -5 -1 -10 -10 -10 -9 0 -13 5 -10 10 3 6 8 10 10 10 2 0 7 -4 10
-10z m-798 -46 c-3 -3 -12 -4 -19 -1 -8 3 -5 6 6 6 11 1 17 -2 13 -5z m827
-116 l71 -1 -85 -7 c-261 -22 -507 -24 -487 -3 9 9 276 22 356 17 41 -2 106
-5 145 -6z m-2141 -35 c-7 -2 -19 -2 -25 0 -7 3 -2 5 12 5 14 0 19 -2 13 -5z
m167 -4 c0 -11 -49 -10 -110 1 -41 7 -37 8 33 8 42 -1 77 -5 77 -9z m65 1 c4
-6 -7 -10 -24 -10 -17 0 -31 5 -31 10 0 6 11 10 24 10 14 0 28 -4 31 -10z
m-100 -114 c17 -1 -64 -3 -180 -2 -168 0 -186 1 -90 6 112 5 200 4 270 -4z
m-658 -12 c-3 -3 -12 -4 -19 -1 -8 3 -5 6 6 6 11 1 17 -2 13 -5z m1293 -47
c142 1 187 -1 145 -7 -33 -4 -204 -11 -380 -14 -175 -4 -321 -9 -324 -12 -3
-3 110 -4 252 -3 142 1 260 -1 264 -5 3 -3 -45 -7 -108 -8 -110 -2 -112 -2
-39 -8 66 -6 60 -6 -50 -7 -69 0 -209 2 -313 6 -103 3 -187 3 -187 -1 0 -5
-26 -8 -57 -9 -42 0 -52 -3 -38 -9 11 -5 194 -9 406 -9 411 -1 685 -10 634
-22 -16 -4 -145 -6 -285 -6 -200 1 -226 2 -120 7 91 3 -3 7 -287 10 -385 5
-424 7 -440 23 -16 16 -14 17 57 18 65 2 70 3 35 10 -37 7 -36 7 20 7 33 0 78
1 100 2 38 3 37 4 -15 10 l-55 7 67 1 c36 1 75 5 85 8 16 6 16 5 -2 -9 -19
-16 -18 -16 23 -17 23 0 42 4 42 9 0 5 10 12 23 14 19 4 18 4 -5 6 -16 0 -28
6 -28 12 0 8 54 8 188 2 103 -4 279 -7 392 -6z m-1067 -4 c-18 -2 -48 -2 -65
0 -18 2 -4 4 32 4 36 0 50 -2 33 -4z m340 0 c-7 -2 -21 -2 -30 0 -10 3 -4 5
12 5 17 0 24 -2 18 -5z m-810 -60 c-7 -2 -19 -2 -25 0 -7 3 -2 5 12 5 14 0 19
-2 13 -5z m354 1 c-7 -7 -249 -6 -256 1 -2 3 56 5 129 5 73 0 131 -3 127 -6z
m1571 -8 c3 -3 -105 -6 -239 -6 -134 0 -239 4 -232 8 13 8 462 6 471 -2z
m-913 -62 c-209 -15 -455 -17 -475 -4 -10 6 54 10 190 11 113 1 250 4 305 8
55 3 111 4 125 1 14 -2 -51 -10 -145 -16z m-602 -1 c-13 -2 -33 -2 -45 0 -13
2 -3 4 22 4 25 0 35 -2 23 -4z m1207 -24 c-59 -10 -254 -10 -305 0 -26 6 27 9
155 9 129 0 180 -3 150 -9z m-551 -15 c2 -2 -83 -3 -190 -3 -114 1 -178 5
-154 9 38 7 335 1 344 -6z m-959 -40 c0 -2 -11 -4 -25 -4 -14 0 -25 4 -25 9 0
4 11 6 25 3 14 -2 25 -6 25 -8z m1235 7 c3 -6 -17 -11 -47 -13 -47 -3 -42 -4
42 -13 l95 -10 -130 -6 c-170 -9 -591 -8 -680 0 -63 6 -66 8 -35 14 19 4 46 7
60 6 78 -5 253 2 245 10 -6 5 -21 11 -35 14 -14 2 88 5 227 6 149 0 254 -3
258 -8z m-1888 -17 c-3 -3 -12 -4 -19 -1 -8 3 -5 6 6 6 11 1 17 -2 13 -5z
m516 -1 c-13 -2 -33 -2 -45 0 -13 2 -3 4 22 4 25 0 35 -2 23 -4z m2642 -2 c17
-7 14 -9 -15 -13 -66 -11 -578 -9 -585 1 -7 12 80 16 370 18 116 1 219 -2 230
-6z m-141 -41 c15 -6 0 -9 -49 -11 -38 -1 -83 -5 -100 -10 -17 -4 75 -6 210
-5 186 3 216 2 135 -5 -159 -12 -972 -35 -1114 -30 -22 0 -37 3 -35 6 5 4 72
8 414 22 l180 8 -150 6 c-82 4 -224 8 -315 9 -98 1 -153 5 -135 10 41 10 934
10 959 0z m-1979 -22 c345 2 493 -1 527 -10 26 -6 45 -15 42 -20 -3 -5 -193
-7 -422 -6 -229 1 -556 -1 -727 -5 -177 -4 -296 -3 -277 2 52 14 50 21 -6 21
-29 0 -52 4 -52 10 0 13 138 18 300 11 74 -3 351 -5 615 -3z m2200 -47 c53 -6
44 -8 -80 -14 -77 -4 -169 -12 -205 -17 -171 -24 -533 -34 -850 -21 -420 16
-503 21 -515 33 -9 10 643 5 1043 -7 81 -3 132 -1 132 5 0 6 -17 11 -37 11
l-38 2 35 7 c44 9 435 10 515 1z m-3055 -61 c-37 -12 -408 -12 -415 0 -4 7 70
10 217 9 127 -1 212 -4 198 -9z m660 -28 c0 -18 -1002 -30 -1166 -14 -54 5 51
9 326 12 759 10 840 10 840 2z m1035 -2 c88 -6 77 -7 -98 -8 -130 -1 -196 1
-192 8 7 11 138 11 290 0z m690 -30 c19 -5 -22 -8 -107 -9 -86 -1 -138 3 -138
9 0 12 199 12 245 0z m238 -37 c-7 -2 -21 -2 -30 0 -10 3 -4 5 12 5 17 0 24
-2 18 -5z m-529 -143 c-20 -8 -339 -16 -359 -9 -5 2 62 6 150 9 88 3 176 6
195 7 28 1 31 -1 14 -7z m169 3 c-13 -2 -33 -2 -45 0 -13 2 -3 4 22 4 25 0 35
-2 23 -4z m177 -33 c10 -7 -42 -10 -163 -10 -105 0 -176 4 -173 9 8 13 317 14
336 1z m-407 -77 c-13 -2 -33 -2 -45 0 -13 2 -3 4 22 4 25 0 35 -2 23 -4z
m-353 -13 c-58 -4 -117 -10 -132 -15 -16 -4 -40 -4 -55 0 l-28 8 25 7 c14 5
86 8 160 7 l135 0 -105 -7z m475 -36 c50 -3 140 -10 200 -14 95 -8 87 -8 -60
-4 -222 6 -456 21 -464 30 -5 6 84 3 324 -12z m348 -21 c-7 -2 -19 -2 -25 0
-7 3 -2 5 12 5 14 0 19 -2 13 -5z m-14 -199 c21 -21 -144 -44 -307 -43 l-147
2 161 12 c165 13 204 20 204 35 0 9 80 3 89 -6z m118 -60 c-3 -3 -12 -4 -19
-1 -8 3 -5 6 6 6 11 1 17 -2 13 -5z m-540 -260 c-3 -3 -12 -4 -19 -1 -8 3 -5
6 6 6 11 1 17 -2 13 -5z"/>
<path d="M6571 4264 c0 -11 3 -14 6 -6 3 7 2 16 -1 19 -3 4 -6 -2 -5 -13z"/>
<path d="M4638 2973 c34 -2 90 -2 125 0 34 2 6 3 -63 3 -69 0 -97 -1 -62 -3z"/>
<path d="M5763 2943 c64 -2 170 -2 235 0 64 1 11 3 -118 3 -129 0 -182 -2
-117 -3z"/>
<path d="M6752 4324 c15 -16 18 -16 33 0 15 15 14 16 -16 16 -31 0 -32 -1 -17
-16z"/>
<path d="M6769 4290 c-13 -10 -18 -19 -11 -20 6 0 12 5 12 10 0 6 8 10 18 10
9 0 24 5 32 10 12 8 11 10 -6 10 -12 0 -32 -9 -45 -20z"/>
<path d="M6828 4123 c12 -2 32 -2 45 0 12 2 2 4 -23 4 -25 0 -35 -2 -22 -4z"/>
<path d="M2173 4113 c9 -2 25 -2 35 0 9 3 1 5 -18 5 -19 0 -27 -2 -17 -5z"/>
<path d="M6848 4013 c7 -3 16 -2 19 1 4 3 -2 6 -13 5 -11 0 -14 -3 -6 -6z"/>
<path d="M6898 3883 c6 -2 18 -2 25 0 6 3 1 5 -13 5 -14 0 -19 -2 -12 -5z"/>
<path d="M2238 3863 c6 -2 18 -2 25 0 6 3 1 5 -13 5 -14 0 -19 -2 -12 -5z"/>
<path d="M6868 3853 c34 -2 90 -2 125 0 34 2 6 3 -63 3 -69 0 -97 -1 -62 -3z"/>
<path d="M6970 3826 c0 -2 9 -6 20 -9 11 -3 20 -1 20 4 0 5 -9 9 -20 9 -11 0
-20 -2 -20 -4z"/>
<path d="M7068 3823 c7 -3 16 -2 19 1 4 3 -2 6 -13 5 -11 0 -14 -3 -6 -6z"/>
<path d="M1958 3813 c7 -3 16 -2 19 1 4 3 -2 6 -13 5 -11 0 -14 -3 -6 -6z"/>
<path d="M6883 3763 c9 -2 25 -2 35 0 9 3 1 5 -18 5 -19 0 -27 -2 -17 -5z"/>
<path d="M7063 3613 c15 -2 37 -2 50 0 12 2 0 4 -28 4 -27 0 -38 -2 -22 -4z"/>
<path d="M6845 3580 c92 -12 253 -12 235 0 -8 5 -78 9 -155 8 -113 -1 -128 -2
-80 -8z"/>
<path d="M7042 3523 c37 -2 100 -2 140 0 40 1 10 3 -67 3 -77 0 -110 -1 -73
-3z"/>
<path d="M1592 3403 c59 -2 158 -2 220 0 62 1 14 3 -107 3 -121 0 -172 -2
-113 -3z"/>
<path d="M6978 3383 c7 -3 16 -2 19 1 4 3 -2 6 -13 5 -11 0 -14 -3 -6 -6z"/>
<path d="M6918 3323 c23 -2 59 -2 80 0 20 2 1 4 -43 4 -44 0 -61 -2 -37 -4z"/>
<path d="M2088 3313 c23 -2 61 -2 85 0 23 2 4 4 -43 4 -47 0 -66 -2 -42 -4z"/>
<path d="M6668 3293 c6 -2 18 -2 25 0 6 3 1 5 -13 5 -14 0 -19 -2 -12 -5z"/>
<path d="M5870 3260 c-41 -4 12 -7 145 -8 116 0 228 3 250 7 48 10 -296 11
-395 1z"/>
<path d="M6340 3069 c-32 -10 643 -9 730 1 38 4 -94 8 -320 7 -212 0 -396 -3
-410 -8z"/>
<path d="M6083 3053 c15 -2 39 -2 55 0 15 2 2 4 -28 4 -30 0 -43 -2 -27 -4z"/>
<path d="M4693 2733 c20 -2 54 -2 75 0 20 2 3 4 -38 4 -41 0 -58 -2 -37 -4z"/>
<path d="M1805 2608 c-488 -20 -255 -45 307 -33 l350 8 -54 18 c-60 21 -223
23 -603 7z"/>
<path d="M1875 2505 c-5 -2 -45 -6 -87 -10 -43 -4 -78 -11 -78 -16 0 -11 187
-12 445 -1 185 7 187 7 100 15 -105 9 -365 17 -380 12z"/>
<path d="M3280 2400 c-52 -3 88 -7 313 -8 266 -1 407 1 407 8 0 11 -552 11
-720 0z"/>
<path d="M1940 2390 c-189 -13 -181 -12 -120 -20 130 -18 318 -4 279 21 -8 5
-23 8 -34 7 -11 -1 -67 -5 -125 -8z"/>
<path d="M2365 2373 c-33 -2 -67 -6 -75 -10 -23 -10 87 -21 300 -28 205 -7
327 2 395 29 38 14 22 15 -260 14 -165 -1 -327 -4 -360 -5z"/>
<path d="M2435 2280 c71 -11 284 -11 230 1 -22 4 -94 8 -160 7 -95 -1 -110 -2
-70 -8z"/>
<path d="M1625 2111 c-17 -7 -15 -9 15 -15 19 -4 287 -12 595 -18 579 -11
1045 -4 1026 15 -7 7 -260 11 -768 12 -417 1 -778 5 -803 8 -25 4 -54 3 -65
-2z"/>
<path d="M5008 1873 c12 -2 32 -2 45 0 12 2 2 4 -23 4 -25 0 -35 -2 -22 -4z"/>
<path d="M5570 1804 l-135 -13 130 4 c145 4 141 3 -200 -31 -209 -20 -248 -32
-155 -47 14 -2 -41 -5 -121 -6 -80 0 -222 -4 -315 -8 l-169 -8 105 -5 c133 -6
541 5 685 18 107 11 265 19 508 27 65 2 124 8 130 13 11 9 178 40 240 44 15 1
27 5 27 9 0 21 -507 24 -730 3z m165 -4 c-3 -5 -13 -10 -21 -10 -8 0 -12 5 -9
10 3 6 13 10 21 10 8 0 12 -4 9 -10z m88 3 c-13 -2 -35 -2 -50 0 -16 2 -5 4
22 4 28 0 40 -2 28 -4z"/>
<path d="M5140 1779 c-80 -4 -343 -6 -585 -4 -362 3 -398 2 -205 -5 378 -13
820 -11 960 4 112 12 117 13 50 13 -41 0 -140 -4 -220 -8z"/>
<path d="M6300 1781 c-98 -11 -144 -21 -133 -31 43 -41 499 -39 578 3 18 10
18 10 -5 20 -32 12 -343 18 -440 8z"/>
<path d="M4010 1762 c0 -13 21 -18 150 -36 182 -26 243 -28 401 -16 85 7 156
14 158 16 13 13 -37 16 -331 25 -177 5 -335 12 -350 15 -16 4 -28 2 -28 -4z"/>
<path d="M5199 1655 c-3 -2 -169 -5 -370 -7 -200 -1 -407 -5 -459 -9 -52 -4
120 -6 383 -4 339 2 482 6 490 14 8 8 4 11 -14 11 -14 0 -28 -2 -30 -5z"/>
<path d="M5249 1645 c-11 -11 -85 -16 -359 -25 -527 -18 -860 -14 -845 10 6
10 -450 23 -607 16 -73 -3 -198 -8 -278 -11 -214 -8 -324 -20 -316 -34 3 -5
34 -14 68 -21 69 -14 90 -25 62 -33 -26 -8 -154 -25 -239 -32 -252 -21 -274
-31 -140 -60 41 -10 75 -21 75 -26 0 -12 -87 -37 -223 -63 -134 -26 -154 -37
-111 -59 46 -23 130 -38 254 -44 117 -6 590 10 800 27 699 57 800 60 958 26
40 -9 168 -27 285 -41 116 -14 275 -34 352 -45 77 -11 212 -22 300 -25 322
-10 529 -11 485 -4 -30 5 -15 6 47 3 92 -4 251 11 266 26 12 11 -15 16 -238
45 -211 27 -275 40 -275 55 0 19 -3 19 340 60 261 32 260 41 -10 60 -397 28
-430 33 -382 59 28 15 177 47 311 66 63 9 126 21 140 27 26 10 26 10 4 18 -66
26 -573 48 -652 28 -31 -8 -45 -8 -50 0 -5 8 -11 8 -22 -3z"/>
<path d="M1295 1571 c-78 -6 -79 -6 -36 -15 24 -4 107 -5 185 0 117 7 133 9
91 15 -56 8 -122 8 -240 0z"/>
<path d="M3740 1299 c-63 -4 -171 -13 -240 -18 -104 -8 -91 -8 80 -3 525 17
830 0 1263 -72 104 -18 198 -26 352 -29 130 -4 193 -2 165 3 -25 5 -81 9 -125
9 -88 1 -158 9 -430 46 -471 65 -795 85 -1065 64z"/>
<path d="M3258 1263 c18 -2 45 -2 60 0 15 2 0 4 -33 4 -33 0 -45 -2 -27 -4z"/>
<path d="M3013 1253 c9 -2 25 -2 35 0 9 3 1 5 -18 5 -19 0 -27 -2 -17 -5z"/>
<path d="M3118 1253 c7 -3 16 -2 19 1 4 3 -2 6 -13 5 -11 0 -14 -3 -6 -6z"/>
<path d="M5538 1183 c23 -2 59 -2 80 0 20 2 1 4 -43 4 -44 0 -61 -2 -37 -4z"/>
<path d="M4156 898 c-86 -9 -134 -26 -81 -29 118 -5 251 13 239 32 -6 11 -49
10 -158 -3z"/>
<path d="M2580 811 c0 -6 8 -11 18 -11 9 0 71 -5 137 -10 66 -5 230 -16 365
-25 240 -15 438 -33 450 -40 15 -9 317 -56 425 -66 181 -17 607 -17 680 0 90
20 96 27 36 40 -82 17 -247 29 -645 46 -203 8 -373 18 -379 22 -6 3 -155 10
-331 14 -177 5 -379 13 -451 19 -283 23 -305 23 -305 11z m1955 -120 c43 -6
33 -8 -80 -16 -165 -12 -294 -12 -320 0 -17 7 -13 10 25 15 61 9 313 10 375 1z"/>
<path d="M3133 813 c9 -2 25 -2 35 0 9 3 1 5 -18 5 -19 0 -27 -2 -17 -5z"/>
<path d="M3283 803 c15 -2 39 -2 55 0 15 2 2 4 -28 4 -30 0 -43 -2 -27 -4z"/>
</g>
</svg>
